<svg xmlns="http://www.w3.org/2000/svg" x="0px" y="0px"
width="64" height="64"
viewBox="0 0 172 172"
style=" fill:#000000;"><g fill="none" fill-rule="nonzero" stroke="none" stroke-width="1" stroke-linecap="butt" stroke-linejoin="miter" stroke-miterlimit="10" stroke-dasharray="" stroke-dashoffset="0" font-family="none" font-weight="none" font-size="none" text-anchor="none" style="mix-blend-mode: normal"><path d="M0,172v-172h172v172z" fill="none"></path><g fill="#ffffff"><path d="M32.25,10.75c-5.9314,0 -10.75,4.8186 -10.75,10.75v129c0,5.9314 4.8186,10.75 10.75,10.75h99.4375c4.44067,0 8.0625,-3.62183 8.0625,-8.0625v-8.55591c3.11792,-1.11279 5.375,-4.07324 5.375,-7.56909v-118.25c0,-4.44067 -3.62183,-8.0625 -8.0625,-8.0625zM32.25,16.125h104.8125c1.48022,0 2.6875,1.20728 2.6875,2.6875v118.25c0,1.48022 -1.20728,2.6875 -2.6875,2.6875h-83.3125v-94.0625c0,-1.48022 -1.19678,-2.6875 -2.6875,-2.6875c-1.49072,0 -2.6875,1.20728 -2.6875,2.6875v94.0625h-16.125c-1.65869,0 -3.60083,0.59839 -5.375,1.70068v-119.95068c0,-2.96045 2.41455,-5.375 5.375,-5.375zM34.9375,21.5c-1.49072,0 -2.6875,1.20728 -2.6875,2.6875c0,1.48022 1.19678,2.6875 2.6875,2.6875h5.375c1.49072,0 2.6875,-1.20728 2.6875,-2.6875c0,-1.48022 -1.19678,-2.6875 -2.6875,-2.6875zM51.0625,21.5c-1.49072,0 -2.6875,1.20728 -2.6875,2.6875v10.75c0,1.48022 1.19678,2.6875 2.6875,2.6875c1.49072,0 2.6875,-1.20728 2.6875,-2.6875v-10.75c0,-1.48022 -1.19678,-2.6875 -2.6875,-2.6875zM34.9375,34.9375c-1.49072,0 -2.6875,1.20728 -2.6875,2.6875c0,1.48022 1.19678,2.6875 2.6875,2.6875h5.375c1.49072,0 2.6875,-1.20728 2.6875,-2.6875c0,-1.48022 -1.19678,-2.6875 -2.6875,-2.6875zM34.9375,48.375c-1.49072,0 -2.6875,1.20728 -2.6875,2.6875c0,1.48022 1.19678,2.6875 2.6875,2.6875h5.375c1.49072,0 2.6875,-1.20728 2.6875,-2.6875c0,-1.48022 -1.19678,-2.6875 -2.6875,-2.6875zM34.9375,61.8125c-1.49072,0 -2.6875,1.20728 -2.6875,2.6875c0,1.48022 1.19678,2.6875 2.6875,2.6875h5.375c1.49072,0 2.6875,-1.20728 2.6875,-2.6875c0,-1.48022 -1.19678,-2.6875 -2.6875,-2.6875zM72.5625,64.5c-1.49072,0 -2.6875,1.20728 -2.6875,2.6875c0,1.48022 1.19678,2.6875 2.6875,2.6875h26.875c1.49072,0 2.6875,-1.20728 2.6875,-2.6875c0,-1.48022 -1.19678,-2.6875 -2.6875,-2.6875zM110.1875,64.5c-1.49072,0 -2.6875,1.20728 -2.6875,2.6875c0,1.48022 1.19678,2.6875 2.6875,2.6875h10.75c1.49072,0 2.6875,-1.20728 2.6875,-2.6875c0,-1.48022 -1.19678,-2.6875 -2.6875,-2.6875zM34.9375,75.25c-1.49072,0 -2.6875,1.20728 -2.6875,2.6875c0,1.48022 1.19678,2.6875 2.6875,2.6875h5.375c1.49072,0 2.6875,-1.20728 2.6875,-2.6875c0,-1.48022 -1.19678,-2.6875 -2.6875,-2.6875zM83.3125,75.25c-1.49072,0 -2.6875,1.20728 -2.6875,2.6875c0,1.48022 1.19678,2.6875 2.6875,2.6875h26.875c1.49072,0 2.6875,-1.20728 2.6875,-2.6875c0,-1.48022 -1.19678,-2.6875 -2.6875,-2.6875zM34.9375,88.6875c-1.49072,0 -2.6875,1.20728 -2.6875,2.6875c0,1.48022 1.19678,2.6875 2.6875,2.6875h5.375c1.49072,0 2.6875,-1.20728 2.6875,-2.6875c0,-1.48022 -1.19678,-2.6875 -2.6875,-2.6875zM34.9375,102.125c-1.49072,0 -2.6875,1.20728 -2.6875,2.6875c0,1.48022 1.19678,2.6875 2.6875,2.6875h5.375c1.49072,0 2.6875,-1.20728 2.6875,-2.6875c0,-1.48022 -1.19678,-2.6875 -2.6875,-2.6875zM34.9375,115.5625c-1.49072,0 -2.6875,1.20728 -2.6875,2.6875c0,1.48022 1.19678,2.6875 2.6875,2.6875h5.375c1.49072,0 2.6875,-1.20728 2.6875,-2.6875c0,-1.48022 -1.19678,-2.6875 -2.6875,-2.6875zM34.9375,129c-1.49072,0 -2.6875,1.20728 -2.6875,2.6875c0,1.48022 1.19678,2.6875 2.6875,2.6875h5.375c1.49072,0 2.6875,-1.20728 2.6875,-2.6875c0,-1.48022 -1.19678,-2.6875 -2.6875,-2.6875zM32.25,145.125h102.125v8.0625c0,1.48022 -1.20728,2.6875 -2.6875,2.6875h-99.4375c-2.96045,0 -5.375,-2.41455 -5.375,-5.375c0,-3.34888 3.7373,-5.375 5.375,-5.375z"></path></g></g></svg>