<?xml version="1.0" encoding="utf-8"?>
<!-- Svg Vector Icons : http://www.onlinewebfonts.com/icon -->
<!DOCTYPE svg PUBLIC "-//W3C//DTD SVG 1.1//EN" "http://www.w3.org/Graphics/SVG/1.1/DTD/svg11.dtd">
<svg version="1.1" xmlns="http://www.w3.org/2000/svg" xmlns:xlink="http://www.w3.org/1999/xlink" x="0px" y="0px" viewBox="0 0 1000 1000" enable-background="new 0 0 1000 1000" xml:space="preserve">
<metadata> Svg Vector Icons : http://www.onlinewebfonts.com/icon </metadata>
<g><path d="M149.8,269.7h444v85.5h-444V269.7z M630.8,530.5v264.7l202.7-131.5L630.8,530.5z M698.6,368.9c39.8,0,77.2,7.6,112.5,22.9c35.5,15.3,66.3,36.2,92.9,62.4c26.4,26.2,47.5,57,62.8,91.9c15.5,35.1,23.3,72.3,23.3,111.7c0,40.3-7.7,78-23.3,112.9c-15.3,35.1-36.5,65.7-62.8,92.1c-26.6,26.2-57.4,46.7-92.9,61.7c-35.3,15-72.7,22.3-112.5,22.3c-40.7,0-78.7-7.3-114-22.3c-35.3-14.9-66.3-35.5-92.7-61.7c-26.6-26.4-47.5-57-63-92.1c-15.5-34.9-23.3-72.5-23.3-112.9c0-39.4,7.7-76.6,23.3-111.7c15.5-34.9,36.5-65.7,63-91.9c26.4-26.2,57.4-47.1,92.7-62.4C619.8,376.4,657.8,368.9,698.6,368.9z M149.8,431.4h247.7v85.5H149.8V431.4z M149.8,593.2h141.9v85.5H149.8V593.2z M431.7,878.3H84.1V120.6h576.6v200.1c5.9-0.3,11.9-0.5,17.9-0.5c18.5,0,36.5,1.5,54.2,4.4V53.3H10v892.4h506.5C484.7,927.9,456,905.1,431.7,878.3L431.7,878.3L431.7,878.3z" fill="#fff"/></g>
</svg>