<?xml version="1.0" encoding="utf-8"?>
<!-- Svg Vector Icons : http://www.onlinewebfonts.com/icon -->
<!DOCTYPE svg PUBLIC "-//W3C//DTD SVG 1.1//EN" "http://www.w3.org/Graphics/SVG/1.1/DTD/svg11.dtd">
<svg version="1.1" xmlns="http://www.w3.org/2000/svg" xmlns:xlink="http://www.w3.org/1999/xlink" x="0px" y="0px" viewBox="0 0 1000 1000" enable-background="new 0 0 1000 1000" xml:space="preserve">
<metadata> Svg Vector Icons : http://www.onlinewebfonts.com/icon </metadata>
<g><g><path d="M439.5,806.8h-50.4c-145.4-23.8-256.7-150.4-256.7-302.4c0-51,13.1-98.6,35.2-140.9l37.6,52.1c27.4,37.9,86.4,27.3,98.9-17.7l71.2-256.2c9.9-35.6-16.9-70.8-53.8-70.8L65.8,71.3c-45.5,0.1-71.7,51.6-45.1,88.4l69.2,95.8C39.7,325.8,10,411.5,10,504.4c0,214.5,157.3,392.3,362.8,424c5.6,0.9,11.1,0.6,16.4-0.1v0.7h50.4c33.4,0,60.5-27.1,60.5-60.5v-1.2C500,833.9,472.9,806.8,439.5,806.8L439.5,806.8z" fill="#fff"/><path d="M979.4,840.3l-69.2-95.8c50.1-70.2,79.8-155.9,79.8-248.8c0-214.5-157.3-392.3-362.8-424c-5.6-0.9-11.1-0.6-16.4,0.1v-0.8h-50.4c-33.4,0-60.5,27.1-60.5,60.5v1.2c0,33.4,27.1,60.5,60.5,60.5h50.4C756.2,217,867.5,343.6,867.5,495.6c0,51-13.1,98.6-35.2,140.9l-37.6-52.1c-27.3-37.9-86.4-27.3-98.9,17.7l-71.3,256.2c-9.9,35.6,16.9,70.8,53.8,70.8l255.9-0.4C979.7,928.7,1005.9,877.1,979.4,840.3L979.4,840.3z" fill="#fff"/></g></g>
</svg>